<?xml version="1.0" standalone="no"?><!DOCTYPE svg PUBLIC "-//W3C//DTD SVG 1.1//EN" "http://www.w3.org/Graphics/SVG/1.1/DTD/svg11.dtd"><svg t="1500889781481" class="icon" style="" viewBox="0 0 1024 1024" version="1.1" xmlns="http://www.w3.org/2000/svg" p-id="2416" xmlns:xlink="http://www.w3.org/1999/xlink" width="32" height="32"><defs><style type="text/css"></style></defs><path d="M575.670112 214.640522v594.291214c-46.710858-46.714951-137.458675-137.470955-142.474922-142.489248-18.011212-18.004049-39.356356-26.75741-65.25419-26.75741H191.898565V383.88718c44.285622-0.00614 166.096922-0.021489 177.915085-0.021489 24.287149 0 47.343261-9.653871 62.651922-26.028816l143.20454-143.196353m16.024975-86.605474c-12.470009 0-24.737404 4.903683-33.949207 14.08274L386.115941 313.738517s-5.058203 6.170536-16.301267 6.170537c-14.473643 0-193.905268 0.023536-193.905269 0.023536-26.513864 0-47.966455 21.452591-47.966454 47.968501v287.774169c0 26.510794 21.452591 47.966455 47.966454 47.966455h192.032618c7.868201 0 13.279445 1.276063 20.037359 8.03193 6.755868 6.758937 169.766498 169.782871 169.766498 169.782871a47.951105 47.951105 0 0 0 33.915438 14.052041c6.182816 0 12.413727-1.167592 18.364253-3.650133 17.939581-7.405667 29.602202-24.925692 29.602201-44.316322V176.033225c0-19.392676-11.662621-36.912701-29.602201-44.311205a47.382147 47.382147 0 0 0-18.330484-3.686972z" fill="#1296db" p-id="2417"></path><path d="M255.863389 383.823736h63.96073v255.842922h-63.96073zM895.469672 511.745197c0 17.520025-14.202467 31.722492-31.722493 31.722492H735.309972c-17.520025 0-31.722492-14.202467-31.722492-31.722492v-0.515747c0-17.520025 14.202467-31.722492 31.722492-31.722492h128.437207c17.520025 0 31.722492 14.202467 31.722493 31.722492v0.515747zM822.218344 265.559215c12.388145 12.388145 12.388145 32.473599 0 44.862767l-64.111157 64.111157c-12.388145 12.388145-32.473599 12.388145-44.862767 0l-0.364297-0.364297c-12.388145-12.388145-12.388145-32.473599 0-44.862768l64.111157-64.111156c12.388145-12.388145 32.473599-12.388145 44.862767 0l0.364297 0.364297zM822.218344 757.932202c12.388145-12.388145 12.388145-32.473599 0-44.862767l-64.111157-64.111157c-12.388145-12.388145-32.473599-12.388145-44.862767 0l-0.364297 0.364297c-12.388145 12.388145-12.388145 32.473599 0 44.862767l64.111157 64.111157c12.388145 12.388145 32.473599 12.388145 44.862767 0l0.364297-0.364297z" fill="#1296db" p-id="2418"></path></svg>